<svg xmlns="http://www.w3.org/2000/svg" width="23" height="23" viewBox="0 0 23 23">
  <path id="Icon_ionic-ios-arrow-dropright-circle" data-name="Icon ionic-ios-arrow-dropright-circle" d="M3.375,14.875a11.5,11.5,0,0,0,23,0,11.638,11.638,0,0,0-2.083-6.6,11.378,11.378,0,0,0-9.417-4.9A11.5,11.5,0,0,0,3.375,14.875Zm13.518,0-4.528-4.484c-.415-.415,0-1.509,0-1.509s1.095-.415,1.509,0l5.275,5.291a1.066,1.066,0,0,1,.033,1.471l-5.2,5.214a1.065,1.065,0,1,1-1.509-1.5Z" transform="translate(-3.375 -3.375)" fill="#3e2651"/>
</svg>
